HIERARCHY
ROOT Hips
{
	OFFSET 0.000000 0.000000 0.000000
	CHANNELS 6 Xposition Yposition Zposition Xrotation Yrotation Zrotation
	JOINT LeftUpLeg_virtual
	{
		OFFSET 0.000000 0.000000 0.000000
		CHANNELS 3 Xrotation Yrotation Zrotation
		JOINT LeftUpLeg
		{
			OFFSET 10.205400 -3.823500 0.155100
			CHANNELS 3 Xrotation Yrotation Zrotation
			JOINT LeftLeg
			{
				OFFSET 0.708757 -12.982077 0.567790
				CHANNELS 3 Xrotation Yrotation Zrotation
				JOINT LeftFoot
				{
					OFFSET -0.708756 -10.717838 -2.184338
					CHANNELS 3 Xrotation Yrotation Zrotation
					JOINT LeftToeBase
					{
						OFFSET 0.108149 -7.191104 7.560241
						CHANNELS 3 Xrotation Yrotation Zrotation
						JOINT LeftToe_End
						{
							OFFSET 0.070230 0.081724 4.490308
							CHANNELS 3 Xrotation Yrotation Zrotation
							End Site
							{
								OFFSET 0 0 0
							}
						}
					}
				}
			}
		}
	}
	JOINT RightUpLeg_virtual
	{
		OFFSET 0.000000 0.000000 0.000000
		CHANNELS 3 Xrotation Yrotation Zrotation
		JOINT RightUpLeg
		{
			OFFSET -10.205400 -3.823500 0.005500
			CHANNELS 3 Xrotation Yrotation Zrotation
			JOINT RightLeg
			{
				OFFSET -0.708756 -12.982134 0.610632
				CHANNELS 3 Xrotation Yrotation Zrotation
				JOINT RightFoot
				{
					OFFSET 0.708754 -10.717769 -1.945823
					CHANNELS 3 Xrotation Yrotation Zrotation
					JOINT RightToeBase
					{
						OFFSET -0.108140 -7.191069 7.372968
						CHANNELS 3 Xrotation Yrotation Zrotation
						JOINT RightToe_End
						{
							OFFSET -0.070227 0.081735 4.479403
							CHANNELS 3 Xrotation Yrotation Zrotation
							End Site
							{
								OFFSET 0 0 0
							}
						}
					}
				}
			}
		}
	}
	JOINT Spine_virtual
	{
		OFFSET 0.000000 0.000000 0.000000
		CHANNELS 3 Xrotation Yrotation Zrotation
		JOINT Spine
		{
			OFFSET 0.000000 6.876099 0.125700
			CHANNELS 3 Xrotation Yrotation Zrotation
			JOINT Spine1
			{
				OFFSET 0.000000 5.730043 0.104720
				CHANNELS 3 Xrotation Yrotation Zrotation
				JOINT Spine1_split
				{
					OFFSET 0.000000 5.730043 0.104720
					CHANNELS 3 Xrotation Yrotation Zrotation
					JOINT Spine2
					{
						OFFSET 0.000000 5.730043 0.104720
						CHANNELS 3 Xrotation Yrotation Zrotation
						JOINT Neck_virtual
						{
							OFFSET 0.000000 0.000000 0.000000
							CHANNELS 3 Xrotation Yrotation Zrotation
							JOINT Neck
							{
								OFFSET 0.000000 10.314075 0.188496
								CHANNELS 3 Xrotation Yrotation Zrotation
								JOINT Head
								{
									OFFSET 0.000000 7.643700 -2.377400
									CHANNELS 3 Xrotation Yrotation Zrotation
									JOINT HeadTop_End
									{
										OFFSET 0.000000 43.788605 -13.619600
										CHANNELS 3 Xrotation Yrotation Zrotation
										End Site
										{
											OFFSET 0 0 0
										}
									}
								}
							}
						}
						JOINT LeftShoulder_virtual
						{
							OFFSET 0.000000 0.000000 0.000000
							CHANNELS 3 Xrotation Yrotation Zrotation
							JOINT LeftShoulder
							{
								OFFSET 2.196100 4.412489 0.087492
								CHANNELS 3 Xrotation Yrotation Zrotation
								JOINT LeftShoulder_split
								{
									OFFSET 2.196100 4.412489 0.087492
									CHANNELS 3 Xrotation Yrotation Zrotation
									JOINT LeftArm
									{
										OFFSET 8.771219 -2.981674 -0.026999
										CHANNELS 3 Xrotation Yrotation Zrotation
										JOINT LeftForeArm
										{
											OFFSET 8.512804 0.000000 -0.000000
											CHANNELS 3 Xrotation Yrotation Zrotation
											JOINT LeftHand
											{
												OFFSET 18.484802 0.000000 -0.000000
												CHANNELS 3 Xrotation Yrotation Zrotation
												End Site
												{
													OFFSET 0 0 0
												}
											}
										}
									}
								}
							}
						}
						JOINT RightShoulder_virtual
						{
							OFFSET 0.000000 0.000000 0.000000
							CHANNELS 3 Xrotation Yrotation Zrotation
							JOINT RightShoulder
							{
								OFFSET -2.196100 4.412496 0.070690
								CHANNELS 3 Xrotation Yrotation Zrotation
								JOINT RightShoulder_split
								{
									OFFSET -2.196100 4.412496 0.070690
									CHANNELS 3 Xrotation Yrotation Zrotation
									JOINT RightArm
									{
										OFFSET -8.771282 -2.981682 -0.094208
										CHANNELS 3 Xrotation Yrotation Zrotation
										JOINT RightForeArm
										{
											OFFSET -8.494598 0.000000 0.000000
											CHANNELS 3 Xrotation Yrotation Zrotation
											JOINT RightHand
											{
												OFFSET -18.483803 0.000000 0.000001
												CHANNELS 3 Xrotation Yrotation Zrotation
												End Site
												{
													OFFSET 0 0 0
												}
											}
										}
									}
								}
							}
						}
					}
				}
			}
		}
	}
}
MOTION
Frames: 4
Frame Time: 0.03333333
-0.094037 29.552944 0.414410 0.000000 0.000000 0.000000 0.851073 -61.682236 4.572196 -28.783619 6.158281 30.109069 43.838029 -7.719686 -11.712214 -16.346552 -1.239356 -11.137200 -0.383085 0.516589 1.321319 0.000000 0.000000 0.000000 -0.578164 -60.632306 4.037612 -20.459743 -9.956170 -31.645253 40.284592 6.375203 -7.561895 -24.829795 -0.694269 25.516520 3.623643 -0.607038 0.368610 0.000000 0.000000 0.000000 -0.092789 -59.425501 4.004418 11.760639 0.650377 -2.755939 9.009675 -0.820252 -5.500541 1.121601 -4.303992 1.284532 0.000000 0.000000 0.000000 10.020139 -0.527112 -5.502909 -18.564622 19.354779 13.165838 -3.599314 26.863144 -2.401058 0.000000 0.000000 0.000000 9.668333 -0.850883 -5.049450 -5.830693 -10.818110 -4.336882 -0.309885 -3.365345 -1.320328 -18.309046 8.295617 -31.386758 3.854968 -38.205428 2.735859 0.000000 0.000000 0.000000 9.222291 -0.893015 -5.496812 -6.015678 7.246261 3.370665 0.945094 0.080085 2.048776 -40.179315 -18.630449 34.281754 -161.314547 64.766975 161.786267 0.000000 0.000000 0.000000 
-0.142383 29.530558 0.587410 0.000000 0.000000 0.000000 0.706132 -61.983557 4.346741 -28.709163 6.538717 30.451207 44.092638 -8.003429 -11.694680 -16.626373 -1.271904 -11.068915 -0.367804 0.545265 1.276075 0.000000 0.000000 0.000000 -0.647426 -60.516692 3.836758 -20.126669 -9.866364 -31.373371 40.592108 6.107425 -7.486453 -24.877876 -0.815529 25.121991 3.393031 -0.582164 0.424721 0.000000 0.000000 0.000000 -0.533255 -59.165018 3.477971 11.632308 0.561135 -2.805753 8.760123 -0.812698 -5.572468 0.936647 -3.306433 1.050576 0.000000 0.000000 0.000000 9.246153 -0.519440 -5.605710 -17.945928 19.149832 12.693697 -2.507721 26.237402 -1.933973 0.000000 0.000000 0.000000 9.401877 -0.863516 -5.228214 -5.716233 -10.687348 -4.635463 -0.649424 -2.538128 -1.667648 -18.429095 7.694491 -31.581951 4.082412 -38.541518 2.933384 0.000000 0.000000 0.000000 9.048571 -0.840210 -5.623738 -5.968118 7.269968 3.872599 1.172648 0.444047 2.768524 -38.749944 -18.681337 35.148276 -159.329298 66.012084 159.855742 0.000000 0.000000 0.000000 
-0.235757 29.571404 0.742125 0.000000 0.000000 0.000000 0.225638 -62.252571 3.576545 -28.645716 7.250228 31.062508 44.344242 -8.418082 -11.602207 -17.058078 -1.320625 -11.062176 -0.221702 0.625644 1.052628 0.000000 0.000000 0.000000 -1.021822 -60.479044 3.111079 -19.331076 -10.149949 -30.766567 40.411214 5.865293 -7.346115 -24.659339 -0.933190 24.828723 2.864388 -0.575489 0.355609 0.000000 0.000000 0.000000 -1.020646 -58.849190 2.624313 11.277262 0.589853 -2.747438 8.103797 -0.651681 -5.712926 0.678655 -2.437802 0.735216 0.000000 0.000000 0.000000 7.989929 -0.333532 -5.812039 -16.744571 18.604004 12.310689 0.059313 23.782092 -0.389922 0.000000 0.000000 0.000000 8.737555 -0.744392 -5.475976 -5.693959 -10.451190 -4.980604 -1.415396 -1.737121 -1.848771 -18.589128 6.768392 -32.185351 3.294704 -39.088725 2.325056 0.000000 0.000000 0.000000 8.448801 -0.593799 -5.751595 -5.872386 7.067068 4.710224 1.421715 0.853782 2.413238 -37.024383 -17.870900 36.534549 -155.692523 68.413381 156.232067 0.000000 0.000000 0.000000 
-0.329600 29.678572 0.819990 0.000000 0.000000 0.000000 -0.439381 -62.370528 2.469851 -28.511310 8.126492 31.746661 44.256655 -8.847330 -11.463343 -17.334182 -1.383482 -11.229574 -0.226953 0.736256 0.757800 0.000000 0.000000 0.000000 -1.490892 -60.516152 2.122209 -18.127515 -10.778267 -29.885537 39.416294 5.693058 -7.166359 -24.214624 -1.010425 24.609083 2.229387 -0.567997 0.219849 0.000000 0.000000 0.000000 -1.431183 -58.603802 1.672376 10.746184 0.745411 -2.606807 7.175218 -0.358106 -5.874499 0.471255 -1.542198 0.462594 0.000000 0.000000 0.000000 6.530724 0.025583 -6.030630 -15.421312 17.938932 11.988244 3.324360 20.268965 1.884095 0.000000 0.000000 0.000000 7.781624 -0.491349 -5.723950 -5.745724 -10.118126 -5.257749 -2.347027 -1.062939 -1.796510 -18.705646 5.704881 -33.054800 1.916653 -40.105757 1.181500 0.000000 0.000000 0.000000 7.507712 -0.213803 -5.846109 -5.688427 6.618970 5.596085 1.660153 0.969435 1.406109 -35.550267 -16.440076 38.270185 -150.182391 71.217672 150.679191 0.000000 0.000000 0.000000 
